<svg width="32"
  height="32"
  viewBox="0 0 32 32"
  xmlns="http://www.w3.org/2000/svg">
  <path fill-rule="evenodd"
    clip-rule="evenodd"
    d="M16 32C24.8366 32 32 24.8366 32 16C32 7.16344 24.8366 0 16 0C7.16344 0 0 7.16344 0 16C0 24.8366 7.16344 32 16 32ZM17.272 25C20.08 25 22.36 22.768 22.36 19.984C22.36 18.16 21.424 16.672 19.864 15.784C21.232 14.752 21.904 13.48 21.904 12.016C21.904 9.232 19.624 7 16.816 7H10V25H17.272ZM16.576 9.52C18.016 9.52 19 10.648 19 12.136C19 13.624 18.016 14.752 16.576 14.752H12.88V9.52H16.576ZM17.056 17.272C18.472 17.272 19.48 18.376 19.48 19.864C19.48 21.352 18.472 22.48 17.056 22.48H12.88V17.272H17.056Z" />
</svg>
